<mxfile host="65bd71144e">
    <diagram id="F1QVwElntlbeoCvMUPD3" name="Page-1">
        <mxGraphModel dx="2589" dy="188" grid="1" gridSize="10" guides="1" tooltips="1" connect="1" arrows="1" fold="1" page="1" pageScale="1" pageWidth="2339" pageHeight="3300" math="0" shadow="0">
            <root>
                <mxCell id="0"/>
                <mxCell id="1" parent="0"/>
                <mxCell id="2" style="edgeStyle=none;html=1;entryX=0;entryY=0.5;entryDx=0;entryDy=0;" edge="1" parent="1" source="3" target="6">
                    <mxGeometry relative="1" as="geometry"/>
                </mxCell>
                <mxCell id="3" value="" style="shape=ellipse;html=1;dashed=0;whitespace=wrap;aspect=fixed;strokeWidth=5;perimeter=ellipsePerimeter;gradientColor=none;strokeColor=#CC0000;" vertex="1" parent="1">
                    <mxGeometry x="-1750" y="360" width="20" height="20" as="geometry"/>
                </mxCell>
                <mxCell id="4" style="edgeStyle=none;html=1;entryX=0;entryY=0.5;entryDx=0;entryDy=0;" edge="1" parent="1" source="6" target="9">
                    <mxGeometry relative="1" as="geometry"/>
                </mxCell>
                <mxCell id="5" value="Lactancia" style="edgeLabel;html=1;align=center;verticalAlign=middle;resizable=0;points=[];" vertex="1" connectable="0" parent="4">
                    <mxGeometry x="-0.3167" y="-1" relative="1" as="geometry">
                        <mxPoint x="13" y="-1" as="offset"/>
                    </mxGeometry>
                </mxCell>
                <mxCell id="6" value="Recién nacido" style="rounded=1;whiteSpace=wrap;html=1;strokeColor=#CC0000;gradientColor=none;" vertex="1" parent="1">
                    <mxGeometry x="-1590" y="340" width="120" height="60" as="geometry"/>
                </mxCell>
                <mxCell id="7" value="" style="edgeStyle=none;html=1;" edge="1" parent="1" source="9" target="10">
                    <mxGeometry relative="1" as="geometry"/>
                </mxCell>
                <mxCell id="8" value="Escolarizar" style="edgeLabel;html=1;align=center;verticalAlign=middle;resizable=0;points=[];" vertex="1" connectable="0" parent="7">
                    <mxGeometry x="-0.4063" y="2" relative="1" as="geometry">
                        <mxPoint x="21" y="2" as="offset"/>
                    </mxGeometry>
                </mxCell>
                <mxCell id="9" value="Niño pequeño" style="rounded=1;whiteSpace=wrap;html=1;strokeColor=#CC0000;gradientColor=none;" vertex="1" parent="1">
                    <mxGeometry x="-1360" y="340" width="120" height="60" as="geometry"/>
                </mxCell>
                <mxCell id="16" value="Aprender" style="edgeStyle=none;html=1;entryX=0.5;entryY=0;entryDx=0;entryDy=0;" edge="1" parent="1" source="10" target="11">
                    <mxGeometry relative="1" as="geometry"/>
                </mxCell>
                <mxCell id="10" value="Preadolescente" style="rounded=1;whiteSpace=wrap;html=1;strokeColor=#CC0000;gradientColor=none;" vertex="1" parent="1">
                    <mxGeometry x="-1110" y="340" width="120" height="60" as="geometry"/>
                </mxCell>
                <mxCell id="15" value="Crecer" style="edgeStyle=none;html=1;entryX=0.5;entryY=0;entryDx=0;entryDy=0;" edge="1" parent="1" source="11" target="12">
                    <mxGeometry relative="1" as="geometry"/>
                </mxCell>
                <mxCell id="11" value="Adolescente" style="rounded=1;whiteSpace=wrap;html=1;strokeColor=#CC0000;gradientColor=none;" vertex="1" parent="1">
                    <mxGeometry x="-1110" y="460" width="120" height="60" as="geometry"/>
                </mxCell>
                <mxCell id="18" value="Toma decisión" style="edgeStyle=none;html=1;entryX=1;entryY=0.5;entryDx=0;entryDy=0;" edge="1" parent="1" source="12" target="17">
                    <mxGeometry relative="1" as="geometry"/>
                </mxCell>
                <mxCell id="12" value="Mayor edad" style="rounded=1;whiteSpace=wrap;html=1;strokeColor=#CC0000;gradientColor=none;" vertex="1" parent="1">
                    <mxGeometry x="-1110" y="600" width="120" height="60" as="geometry"/>
                </mxCell>
                <mxCell id="24" style="edgeStyle=none;html=1;" edge="1" parent="1" source="13" target="23">
                    <mxGeometry relative="1" as="geometry"/>
                </mxCell>
                <mxCell id="13" value="Estudiante" style="rounded=1;whiteSpace=wrap;html=1;strokeColor=#CC0000;gradientColor=none;" vertex="1" parent="1">
                    <mxGeometry x="-1330" y="460" width="120" height="60" as="geometry"/>
                </mxCell>
                <mxCell id="14" value="Muerte" style="rounded=1;whiteSpace=wrap;html=1;strokeColor=#CC0000;gradientColor=none;" vertex="1" parent="1">
                    <mxGeometry x="-1330" y="730" width="120" height="60" as="geometry"/>
                </mxCell>
                <mxCell id="19" style="edgeStyle=none;html=1;entryX=0.5;entryY=1;entryDx=0;entryDy=0;" edge="1" parent="1" source="17" target="13">
                    <mxGeometry relative="1" as="geometry"/>
                </mxCell>
                <mxCell id="20" style="edgeStyle=none;html=1;entryX=0.5;entryY=0;entryDx=0;entryDy=0;" edge="1" parent="1" source="17" target="14">
                    <mxGeometry relative="1" as="geometry"/>
                </mxCell>
                <mxCell id="22" style="edgeStyle=none;html=1;" edge="1" parent="1" source="17" target="21">
                    <mxGeometry relative="1" as="geometry"/>
                </mxCell>
                <mxCell id="17" value="" style="rhombus;whiteSpace=wrap;html=1;" vertex="1" parent="1">
                    <mxGeometry x="-1310" y="590" width="80" height="80" as="geometry"/>
                </mxCell>
                <mxCell id="29" style="edgeStyle=none;html=1;entryX=0.75;entryY=0.5;entryDx=0;entryDy=0;entryPerimeter=0;" edge="1" parent="1" source="21" target="26">
                    <mxGeometry relative="1" as="geometry">
                        <Array as="points">
                            <mxPoint x="-1590" y="630"/>
                        </Array>
                    </mxGeometry>
                </mxCell>
                <mxCell id="36" style="edgeStyle=none;html=1;entryX=0.5;entryY=1;entryDx=0;entryDy=0;" edge="1" parent="1" source="21" target="34">
                    <mxGeometry relative="1" as="geometry">
                        <Array as="points">
                            <mxPoint x="-1470" y="900"/>
                            <mxPoint x="-1950" y="900"/>
                        </Array>
                    </mxGeometry>
                </mxCell>
                <mxCell id="21" value="Trabajador" style="rounded=1;whiteSpace=wrap;html=1;strokeColor=#CC0000;gradientColor=none;" vertex="1" parent="1">
                    <mxGeometry x="-1530" y="600" width="120" height="60" as="geometry"/>
                </mxCell>
                <mxCell id="28" style="edgeStyle=none;html=1;entryX=0.25;entryY=0.5;entryDx=0;entryDy=0;entryPerimeter=0;" edge="1" parent="1" source="23" target="26">
                    <mxGeometry relative="1" as="geometry">
                        <Array as="points">
                            <mxPoint x="-1580" y="490"/>
                        </Array>
                    </mxGeometry>
                </mxCell>
                <mxCell id="23" value="Licenciado" style="rounded=1;whiteSpace=wrap;html=1;strokeColor=#CC0000;gradientColor=none;" vertex="1" parent="1">
                    <mxGeometry x="-1530" y="460" width="120" height="60" as="geometry"/>
                </mxCell>
                <mxCell id="33" value="Esforzarse" style="edgeStyle=none;html=1;entryX=0.5;entryY=0;entryDx=0;entryDy=0;" edge="1" parent="1" source="25" target="30">
                    <mxGeometry relative="1" as="geometry"/>
                </mxCell>
                <mxCell id="35" value="vaguear" style="edgeStyle=none;html=1;entryX=1;entryY=0.5;entryDx=0;entryDy=0;" edge="1" parent="1" source="25" target="34">
                    <mxGeometry relative="1" as="geometry"/>
                </mxCell>
                <mxCell id="25" value="Trabajador bien&lt;br&gt;remunerado" style="rounded=1;whiteSpace=wrap;html=1;strokeColor=#CC0000;gradientColor=none;" vertex="1" parent="1">
                    <mxGeometry x="-1780" y="540" width="120" height="60" as="geometry"/>
                </mxCell>
                <mxCell id="27" value="" style="edgeStyle=none;html=1;" edge="1" parent="1" source="26" target="25">
                    <mxGeometry relative="1" as="geometry"/>
                </mxCell>
                <mxCell id="26" value="" style="line;strokeWidth=2;direction=south;html=1;" vertex="1" parent="1">
                    <mxGeometry x="-1620" y="490" width="10" height="160" as="geometry"/>
                </mxCell>
                <mxCell id="32" style="edgeStyle=none;html=1;entryX=0.5;entryY=0;entryDx=0;entryDy=0;" edge="1" parent="1" source="30" target="31">
                    <mxGeometry relative="1" as="geometry"/>
                </mxCell>
                <mxCell id="30" value="Jefe" style="rounded=1;whiteSpace=wrap;html=1;strokeColor=#CC0000;gradientColor=none;" vertex="1" parent="1">
                    <mxGeometry x="-1780" y="680" width="120" height="60" as="geometry"/>
                </mxCell>
                <mxCell id="38" style="edgeStyle=none;html=1;entryX=0.5;entryY=0;entryDx=0;entryDy=0;" edge="1" parent="1" source="31" target="37">
                    <mxGeometry relative="1" as="geometry"/>
                </mxCell>
                <mxCell id="31" value="Jubilado" style="rounded=1;whiteSpace=wrap;html=1;strokeColor=#CC0000;gradientColor=none;" vertex="1" parent="1">
                    <mxGeometry x="-1780" y="780" width="120" height="60" as="geometry"/>
                </mxCell>
                <mxCell id="34" value="Desempleado" style="rounded=1;whiteSpace=wrap;html=1;strokeColor=#CC0000;gradientColor=none;" vertex="1" parent="1">
                    <mxGeometry x="-2010" y="540" width="120" height="60" as="geometry"/>
                </mxCell>
                <mxCell id="42" style="edgeStyle=none;html=1;" edge="1" parent="1" source="37" target="39">
                    <mxGeometry relative="1" as="geometry"/>
                </mxCell>
                <mxCell id="37" value="Muerte" style="rounded=1;whiteSpace=wrap;html=1;strokeColor=#CC0000;gradientColor=none;" vertex="1" parent="1">
                    <mxGeometry x="-1780" y="940" width="120" height="60" as="geometry"/>
                </mxCell>
                <mxCell id="39" value="" style="ellipse;shape=doubleEllipse;whiteSpace=wrap;html=1;aspect=fixed;strokeColor=default;" vertex="1" parent="1">
                    <mxGeometry x="-1730" y="1050" width="20" height="20" as="geometry"/>
                </mxCell>
            </root>
        </mxGraphModel>
    </diagram>
</mxfile>